#!OML:ASF H:\Terrain\Patient Classification 1\PLAYGROUND\JustinFriday\JustinFriday.ASF
:FULLY-SPECIFIED
:DEGREES
147
root 12.8603 25.4374 30.6672 126.374 7.52054 -181.404
lowerback 12.712 -2.32106 1.4462
upperback -6.44915 -1.53741 5.89992
thorax -14.2837 -0.245682 6.15294
lowerneck 18.2515 1.21283 -19.3025
upperneck 23.7494 2.73474 3.88966
head 4.49503 2.02947 4.57575
rclavicle 4.13472e-014 -4.29375e-014
rhumerus 60.1101 13.4835 -51.2288
rradius 80.4127
rwrist 6.08643
rhand -0.715491 -33.2255
rfingers 7.12502
rthumb 24.9049 -61.623
lclavicle 4.13472e-014 -4.29375e-014
lhumerus 43.1312 8.74049 63.9048
lradius 79.4391
lwrist -21.8369
lhand 3.92271 8.10359
lfingers 7.12502
lthumb 29.3419 35.808
rfemur 5.3917 -11.5101 13.3664
rtibia 67.3472
rfoot 12.6505 -29.6438
rtoes 44.1257
lfemur 2.84929 9.35458 -0.0863998
ltibia 64.571
lfoot 25.6427 -17.7398
ltoes -23.4365
148
root 12.8419 25.1579 30.4475 127.753 8.15421 -180.676
lowerback 12.5617 -2.37548 2.32375
upperback -6.6522 -1.34772 6.10748
thorax -14.4786 -0.195369 5.84537
lowerneck 17.888 1.0879 -19.0412
upperneck 23.5039 2.55417 3.90043
head 4.46999 1.91654 4.53447
rclavicle -4.77083e-015 5.40694e-014
rhumerus 62.2454 11.4711 -49.9667
rradius 79.5475
rwrist 6.3387
rhand -3.07011 -32.694
rfingers 7.12502
rthumb 22.6467 -61.3853
lclavicle -4.77083e-015 5.40694e-014
lhumerus 46.425 9.53156 63.8813
lradius 78.285
lwrist -22.0636
lhand 4.24843 8.68827
lfingers 7.12502
lthumb 29.6529 36.3378
rfemur 6.12853 -11.2273 14.6211
rtibia 64.8918
rfoot 11.58 -30.2261
rtoes 43.007
lfemur 2.70287 9.28527 0.587764
ltibia 62.9933
lfoot 25.855 -18.6529
ltoes -23.9027
149
root 12.8313 24.8967 30.2394 129.214 8.20622 -180.486
lowerback 12.2496 -2.31757 2.35101
upperback -6.83486 -1.25479 6.10765
thorax -14.5101 -0.146503 5.80015
lowerneck 17.7207 1.01474 -18.7221
upperneck 22.8087 2.33699 3.85509
head 4.27559 1.77653 4.44428
rclavicle 1.90833e-014 -4.85035e-014
rhumerus 64.3928 9.28762 -48.9393
rradius 78.5725
rwrist 6.86224
rhand -5.31039 -32.2037
rfingers 7.12502
rthumb 20.4952 -61.1419
lclavicle 1.90833e-014 -4.85035e-014
lhumerus 49.5864 10.3074 63.6045
lradius 77.7336
lwrist -22.2567
lhand 4.87457 9.72197
lfingers 7.12502
lthumb 30.2503 37.2636
rfemur 6.62639 -10.5617 15.0663
rtibia 62.6534
rfoot 12.1334 -29.1988
rtoes 38.9174
lfemur 2.52593 9.42852 0.310591
ltibia 61.308
lfoot 26.3222 -18.428
ltoes -23.5948
150
root 12.8228 24.6316 30.032 130.606 7.98729 -180.617
lowerback 11.9723 -2.20515 1.92671
upperback -6.97649 -1.21731 5.99132
thorax -14.495 -0.1002 5.8937
lowerneck 17.7849 1.01117 -18.4864
upperneck 21.7784 2.09764 3.89022
head 3.94378 1.61741 4.38015
rclavicle 1.43125e-014 -5.48646e-014
rhumerus 66.5415 7.02148 -47.9434
rradius 77.4786
rwrist 7.24959
rhand -7.27009 -31.6626
rfingers 7.12502
rthumb 18.611 -60.7923
lclavicle 1.43125e-014 -5.48646e-014
lhumerus 52.6577 11.2174 63.2883
lradius 77.5173
lwrist -22.7665
lhand 6.3254 10.1553
lfingers 7.12502
lthumb 31.6333 37.4341
rfemur 7.15513 -9.8718 14.9798
rtibia 60.3957
rfoot 8.45124 -29.9607
rtoes 42.2234
lfemur 2.44543 9.48997 -0.528818
ltibia 59.6618
lfoot 27.0338 -17.1104
ltoes -21.5095
151
root 12.8118 24.3353 29.8233 132.024 7.85647 -180.687
lowerback 11.6984 -2.1146 1.60219
upperback -7.05541 -1.18464 5.91113
thorax -14.4102 -0.0642327 5.96855
lowerneck 17.3504 1.04179 -18.4111
upperneck 21.2085 1.9848 4.22315
head 3.80887 1.5102 4.46045
rclavicle 2.8625e-014 1.59028e-014
rhumerus 68.719 4.64902 -47.0938
rradius 76.3317
rwrist 7.6039
rhand -8.36967 -31.2636
rfingers 7.12502
rthumb 17.5531 -60.4912
lclavicle 2.8625e-014 1.59028e-014
lhumerus 55.7499 12.2842 63.0657
lradius 77.4723
lwrist -23.5473
lhand 8.98818 10.4844
lfingers 7.12502
lthumb 34.166 37.2311
rfemur 7.57021 -9.36392 14.9887
rtibia 58.1357
rfoot 7.47254 -30.0435
rtoes 44.5042
lfemur 2.21241 9.45947 -1.30836
ltibia 58.1012
lfoot 27.3872 -16.3558
ltoes -20.0455
152
root 12.7964 24.0199 29.6215 133.429 7.93207 -180.563
lowerback 11.6357 -2.07239 1.59522
upperback -7.11835 -1.12108 5.91677
thorax -14.4519 -0.0291037 5.96447
lowerneck 16.4813 1.03156 -18.2956
upperneck 21.0789 1.97119 4.47613
head 3.86848 1.455 4.52674
rclavicle -2.06736e-014 -1.98785e-014
rhumerus 70.8449 2.28494 -46.6682
rradius 75.2669
rwrist 7.93934
rhand -8.40408 -31.1139
rfingers 7.12502
rthumb 17.52 -60.3444
lclavicle -2.06736e-014 -1.98785e-014
lhumerus 58.6527 13.4071 62.7265
lradius 77.7523
lwrist -23.9159
lhand 12.4159 11.1999
lfingers 7.12502
lthumb 37.414 37.1562
rfemur 7.87023 -8.85108 15.3678
rtibia 55.8565
rfoot 9.34168 -29.3617
rtoes 43.918
lfemur 1.8591 9.54559 -1.70927
ltibia 56.6584
lfoot 27.4994 -16.5472
ltoes -19.8947
153
root 12.7782 23.6923 29.422 134.681 8.33139 -180.307
lowerback 11.8485 -2.0283 1.89832
upperback -7.10888 -0.966277 6.0148
thorax -14.5978 0.0302455 5.87851
lowerneck 15.8122 0.980336 -17.8543
upperneck 20.6073 1.92824 4.26205
head 3.80743 1.39685 4.37481
rclavicle 1.74931e-014 -7.95139e-015
rhumerus 72.903 -0.00820848 -46.4133
rradius 74.4127
rwrist 7.96525
rhand -7.7966 -31.3167
rfingers 7.12502
rthumb 18.1045 -60.4941
lclavicle 1.74931e-014 -7.95139e-015
lhumerus 61.3583 14.5787 62.4253
lradius 78.3525
lwrist -24.1445
lhand 15.2614 11.455
lfingers 7.12502
lthumb 40.0977 36.6516
rfemur 8.22202 -8.12176 16.1659
rtibia 53.5614
rfoot 12.4085 -28.086
rtoes 40.6023
lfemur 1.71773 9.70124 -1.66461
ltibia 55.3339
lfoot 27.2396 -17.1159
ltoes -20.686
154
root 12.7626 23.3477 29.2218 135.758 8.56399 -180.514
lowerback 12.0706 -1.85026 1.67702
upperback -6.96931 -0.801701 5.95636
thorax -14.5797 0.110866 5.90353
lowerneck 15.4432 0.917397 -17.2192
upperneck 19.5852 1.73906 4.08154
head 3.54011 1.26696 4.18493
rclavicle -1.11319e-014 -1.43125e-014
rhumerus 74.7996 -2.32122 -46.4224
rradius 73.8805
rwrist 8.22463
rhand -7.0812 -31.558
rfingers 7.12502
rthumb 18.7927 -60.6703
lclavicle -1.11319e-014 -1.43125e-014
lhumerus 64.0161 15.693 62.1341
lradius 79.1266
lwrist -24.4712
lhand 15.4727 11.1106
lfingers 7.12502
lthumb 40.2964 36.2466
rfemur 8.6309 -6.92973 16.5586
rtibia 51.3852
rfoot 14.1317 -27.1436
rtoes 38.7922
lfemur 1.78063 9.68792 -2.2618
ltibia 54.0043
lfoot 26.5295 -17.3248
ltoes -22.2431
155
root 12.7467 22.997 29.0294 136.853 8.57144 -180.856
lowerback 12.292 -1.67824 1.22395
upperback -6.86371 -0.713202 5.80164
thorax -14.5906 0.168105 5.97221
lowerneck 13.6076 1.46604 -17.8428
upperneck 20.6637 2.55917 5.52947
head 4.00757 1.62932 4.79383
rclavicle 5.40694e-014 -1.09729e-013
rhumerus 76.4404 -4.53315 -46.6817
rradius 73.6129
rwrist 8.88396
rhand -7.67043 -31.1113
rfingers 7.12502
rthumb 18.2259 -60.2774
lclavicle 5.40694e-014 -1.09729e-013
lhumerus 66.5134 16.749 61.7412
lradius 79.918
lwrist -24.6989
lhand 13.1867 10.489
lfingers 7.12502
lthumb 38.1421 36.2494
rfemur 8.91216 -5.48886 16.7956
rtibia 49.3918
rfoot 14.8033 -26.5481
rtoes 38.6075
lfemur 1.68136 9.68285 -3.18256
ltibia 52.6479
lfoot 25.8803 -17.7174
ltoes -23.3249
156
root 12.729 22.6495 28.843 138.22 8.77386 -180.952
lowerback 12.3455 -1.56082 1.0973
upperback -6.86677 -0.597966 5.73385
thorax -14.6366 0.225446 5.94318
lowerneck 13.8924 1.30071 -16.9879
upperneck 19.0789 2.15724 4.93693
head 3.51358 1.40378 4.40911
rclavicle 1.43125e-014 -7.15625e-014
rhumerus 77.92 -6.6264 -46.9923
rradius 73.6625
rwrist 9.92303
rhand -9.49366 -30.6525
rfingers 7.12502
rthumb 16.4712 -59.9733
lclavicle 1.43125e-014 -7.15625e-014
lhumerus 68.8298 17.7922 61.3314
lradius 80.6058
lwrist -24.5277
lhand 8.79526 9.74646
lfingers 7.12502
lthumb 33.9828 36.534
rfemur 8.81561 -3.99037 17.4203
rtibia 47.5745
rfoot 15.6033 -25.7367
rtoes 37.3148
lfemur 1.26956 10.1947 -3.53437
ltibia 51.2789
lfoot 26.0991 -16.7464
ltoes -20.6405
157
root 12.7118 22.2872 28.6567 139.655 9.18988 -181.033
lowerback 12.298 -1.3896 1.10438
upperback -6.85209 -0.382952 5.68944
thorax -14.6096 0.316796 5.83291
lowerneck 13.5915 1.21866 -16.437
upperneck 18.1218 1.95172 4.7604
head 3.27089 1.2701 4.23839
rclavicle 1.59028e-015 -4.13472e-014
rhumerus 79.2778 -8.65721 -47.424
rradius 74.0654
rwrist 11.5401
rhand -11.7369 -30.6304
rfingers 7.12502
rthumb 14.3105 -60.1172
lclavicle 1.59028e-015 -4.13472e-014
lhumerus 70.9713 18.7557 60.9381
lradius 81.2981
lwrist -23.7851
lhand 2.3934 9.04287
lfingers 7.12502
lthumb 27.8808 36.9936
rfemur 8.568 -2.30749 18.1964
rtibia 45.9202
rfoot 15.5001 -25.4427
rtoes 36.896
lfemur 0.733989 9.79669 -4.22191
ltibia 49.9827
lfoot 26.0573 -15.5683
ltoes -19.847
158
root 12.6949 21.9226 28.4734 141.172 9.67018 -181.117
lowerback 12.1629 -1.19247 1.19075
upperback -6.88351 -0.112953 5.64409
thorax -14.5881 0.428904 5.66141
lowerneck 13.2985 1.26315 -16.1565
upperneck 17.1795 1.84715 4.98795
head 3.01402 1.18195 4.24105
rclavicle -2.22639e-014 1.01778e-013
rhumerus 80.4235 -10.5436 -47.8709
rradius 74.6171
rwrist 13.1612
rhand -14.6525 -31.0024
rfingers 7.12502
rthumb 11.4999 -60.667
lclavicle -2.22639e-014 1.01778e-013
lhumerus 73.0094 19.5428 60.7655
lradius 81.9291
lwrist -22.66
lhand -4.78088 7.57947
lfingers 7.12502
lthumb 21.0039 36.4621
rfemur 8.20731 -0.476179 19.0058
rtibia 44.3997
rfoot 14.0947 -25.8196
rtoes 38.3362
lfemur 0.0965847 9.2046 -4.97414
ltibia 48.7811
lfoot 26.005 -14.8285
ltoes -20.4429
